<?xml version="1.0" encoding="UTF-8"?>
<svg xmlns="http://www.w3.org/2000/svg" viewBox="0 0 32 32" width="32" height="32">
  <defs>
    <linearGradient id="favBg" x1="0%" y1="0%" x2="100%" y2="100%">
      <stop offset="0%" stop-color="#182338"/>
      <stop offset="100%" stop-color="#090d16"/>
    </linearGradient>
    <linearGradient id="favDrop" x1="0%" y1="0%" x2="100%" y2="100%">
      <stop offset="0%" stop-color="#38bdf8"/>
      <stop offset="100%" stop-color="#0284c7"/>
    </linearGradient>
  </defs>
  <rect x="1" y="1" width="30" height="30" rx="7" fill="url(#favBg)" stroke="#10b981" stroke-width="1"/>
  <!-- Small companion droplet -->
  <path d="M11 22.5c2.6 0 4.7-2.1 4.7-4.7 0-1.4-.7-2.7-2-3.8-.7-.6-1.7-2-2.7-3.7-1 1.7-2 3.1-2.7 3.7-1.3 1.1-2 2.4-2 3.8 0 2.6 2.1 4.7 4.7 4.7z" fill="#7dd3fc"/>
  <!-- Primary RH droplet -->
  <path d="M20 7.5C16.4 12.3 13.5 16.5 13.5 20.7c0 3.6 2.9 6.5 6.5 6.5s6.5-2.9 6.5-6.5c0-4.2-2.9-8.4-6.5-13.2z" fill="url(#favDrop)"/>
  <path d="M23.8 17a4.2 4.2 0 0 1 .3 4.2" fill="none" stroke="#ffffff" stroke-width="1.2" stroke-linecap="round" stroke-opacity="0.9"/>
</svg>